<?xml version="1.0" encoding="utf-8"?>
<!-- Generator: Adobe Illustrator 25.4.1, SVG Export Plug-In . SVG Version: 6.00 Build 0)  -->
<svg version="1.1" id="Camada_1" xmlns="http://www.w3.org/2000/svg" xmlns:xlink="http://www.w3.org/1999/xlink" x="0px" y="0px"
	 viewBox="0 0 1080 1080" style="enable-background:new 0 0 1080 1080;" xml:space="preserve">
<style type="text/css">
	.st0{fill:#F8CB00;}
	.st1{stroke:#000000;stroke-width:6;stroke-miterlimit:10;}
	.st2{font-family:'MyriadPro-Regular';}
	.st3{font-size:34.3438px;}
	.st4{letter-spacing:9;}
</style>
<rect class="st0" width="1080" height="1080"/>
<g>
	<g>
		<path class="st1" d="M415.64,489.18V389h24.63c13.81,0,25.63,4.91,35.44,14.72c9.77,9.77,14.65,21.56,14.65,35.37
			c0,13.81-4.88,25.6-14.65,35.37c-9.81,9.81-21.63,14.72-35.44,14.72H415.64z M424.78,480.05h15.49c11.3,0,20.95-4,28.95-12
			c8-8,12-17.65,12-28.95c0-11.3-4-20.95-12-28.95c-8-8-17.65-12-28.95-12h-15.49V480.05z"/>
		<path class="st1" d="M543.54,388.51h9.28v100.67h-9.28V388.51z"/>
		<path class="st1" d="M686.15,389l-63.35,100.18h-12.28V389h9.21v87.9l55.53-87.9H686.15z"/>
		<path class="st1" d="M737.31,388.51h9.28v100.67h-9.28V388.51z"/>
		<path class="st1" d="M873.43,389v100.18h-9.91l-49.95-83.51v83.51h-9.21V389h9.98l49.88,83.51V389H873.43z"/>
		<path class="st1" d="M1003.84,389v100.18h-9.14v-25.04h-39.76l-15.84,25.04h-10.88L991.56,389H1003.84z M960.72,454.93h33.97
			v-53.65L960.72,454.93z"/>
		<path d="M449.3,543.98v53.37h-4.91v-24.31h-27.06v24.31h-4.91v-53.37h4.91v24.16h27.06v-24.16H449.3z"/>
		<path d="M504.59,543.98v53.37h-4.87V584h-21.18l-8.44,13.34h-5.8l33.75-53.37H504.59z M481.62,579.1h18.1v-28.58L481.62,579.1z"/>
		<path d="M574.34,543.98v53.33h-4.87v-41.48l-17.95,41.51h-5.35l-17.91-41.51v41.48h-4.91v-53.33h5.13l20.37,47.2l20.4-47.2H574.34
			z"/>
		<path d="M592.94,597.34v-53.37H609c3.99,0,7.4,1.41,10.22,4.24c2.85,2.85,4.27,6.27,4.27,10.26c0,4.43-1.7,8.11-5.09,11.04
			c2.53,1.19,4.55,2.95,6.06,5.28c1.54,2.4,2.31,5.03,2.31,7.88c0,4.06-1.42,7.52-4.27,10.37c-2.87,2.87-6.32,4.31-10.33,4.31
			H592.94z M597.85,568.09H609c2.62,0,4.88-0.94,6.76-2.82c1.88-1.88,2.82-4.15,2.82-6.8s-0.94-4.91-2.82-6.76
			c-1.88-1.88-4.14-2.82-6.76-2.82h-11.15V568.09z M597.85,592.44h14.31c2.68,0,4.97-0.95,6.87-2.86c1.88-1.91,2.82-4.21,2.82-6.91
			c0-2.65-0.94-4.93-2.82-6.84c-1.91-1.88-4.2-2.82-6.87-2.82h-14.31V592.44z"/>
		<path d="M648.68,592.55c-3.59-3.59-5.39-7.93-5.39-13.01v-35.45h4.91v35.45c0,3.72,1.31,6.9,3.94,9.55
			c2.65,2.65,5.84,3.98,9.55,3.98c3.72,0,6.9-1.32,9.55-3.98c2.63-2.65,3.94-5.84,3.94-9.55v-35.45h4.91v35.45
			c0,5.08-1.8,9.42-5.39,13.01c-3.59,3.59-7.93,5.39-13.01,5.39C656.61,597.94,652.27,596.14,648.68,592.55z"/>
		<path d="M733.96,597.34h-5.5l-12.53-24.12h-12.78v24.08h-4.91v-53.33h19.18c4.04,0,7.48,1.44,10.33,4.31
			c2.85,2.85,4.27,6.29,4.27,10.33c0,3.34-1.03,6.34-3.08,8.99c-2.01,2.58-4.58,4.29-7.73,5.13L733.96,597.34z M717.42,568.32
			c2.68,0,4.97-0.94,6.88-2.82c1.88-1.91,2.82-4.2,2.82-6.88s-0.94-4.97-2.82-6.88c-1.91-1.91-4.2-2.86-6.88-2.86h-14.27v19.44
			H717.42z"/>
		<path d="M754.8,589.87c-5.33-5.3-7.99-11.71-7.99-19.21c0-7.48,2.66-13.89,7.99-19.21c5.3-5.3,11.71-7.95,19.21-7.95
			c3.69,0,7.22,0.71,10.59,2.12l-1.93,4.53c-2.75-1.16-5.64-1.75-8.66-1.75c-6.14,0-11.4,2.17-15.76,6.5
			c-4.36,4.36-6.54,9.61-6.54,15.76c0,6.14,2.18,11.4,6.54,15.76c4.36,4.36,9.61,6.54,15.76,6.54c2.48,0,4.88-0.4,7.21-1.19v-18.81
			h-11.11v-4.91h16.02v27.02l-1.49,0.63c-3.39,1.44-6.94,2.16-10.63,2.16C766.5,597.86,760.1,595.2,754.8,589.87z"/>
		<path d="M807.97,592.55c-3.59-3.59-5.39-7.93-5.39-13.01v-35.45h4.91v35.45c0,3.72,1.31,6.9,3.94,9.55
			c2.65,2.65,5.84,3.98,9.55,3.98s6.9-1.32,9.55-3.98c2.63-2.65,3.94-5.84,3.94-9.55v-35.45h4.91v35.45c0,5.08-1.8,9.42-5.39,13.01
			c-3.59,3.59-7.93,5.39-13.01,5.39C815.9,597.94,811.56,596.14,807.97,592.55z"/>
		<path d="M884.66,543.98v4.91h-22.34v19.25h17.65v4.91h-17.65v19.4h22.34v4.91h-27.24v-53.37H884.66z"/>
		<path d="M936.98,597.34h-5.5l-12.53-24.12h-12.78v24.08h-4.91v-53.33h19.18c4.04,0,7.48,1.44,10.33,4.31
			c2.85,2.85,4.27,6.29,4.27,10.33c0,3.34-1.03,6.34-3.08,8.99c-2.01,2.58-4.58,4.29-7.73,5.13L936.98,597.34z M920.44,568.32
			c2.68,0,4.97-0.94,6.88-2.82c1.88-1.91,2.82-4.2,2.82-6.88s-0.94-4.97-2.82-6.88c-1.91-1.91-4.2-2.86-6.88-2.86h-14.27v19.44
			H920.44z"/>
		<path d="M950.64,543.72h4.94v53.63h-4.94V543.72z"/>
		<path d="M1009.98,543.98v53.37h-4.87V584h-21.18l-8.44,13.34h-5.8l33.75-53.37H1009.98z M987.02,579.1h18.1v-28.58L987.02,579.1z"
			/>
	</g>
	<g>
		<path d="M215.05,478.71c-36.62,0-73.24,0-109.85,0c-3.81,0-7.62,0.02-11.43,0c-7.62-0.05-13.56-5.71-13.66-13.35
			c-0.18-14.29,2.81-27.99,8.16-41.2c4.87-12.02,11.69-22.87,20.19-32.63c6.58-7.56,13.97-14.25,22.12-20.12
			c10.4-7.5,21.62-13.39,33.64-17.78c17.71-6.45,36.01-9.34,54.82-8.8c20.71,0.6,40.51,5.18,59.23,14.17
			c15.29,7.34,28.79,17.16,40.33,29.6c11.44,12.33,20.04,26.41,25.38,42.37c3.7,11.06,5.74,22.46,5.63,34.18
			c-0.07,7.56-5.91,13.53-13.46,13.54c-35.07,0.03-70.14,0.02-105.22,0.02C225.63,478.71,220.34,478.71,215.05,478.71z
			 M214.8,467.62c9.34,0,18.69,0,28.03,0c30.6,0,61.21,0,91.81,0c3.19,0,3.92-0.68,3.85-3.89c-0.32-14.88-3.98-28.94-10.68-42.19
			c-7.1-14.05-16.92-25.92-29.02-35.96c-10.16-8.43-21.39-15.05-33.61-19.96c-14.53-5.84-29.63-9.02-45.3-9.59
			c-12.51-0.45-24.84,0.73-36.99,3.71c-21.67,5.32-40.89,15.27-57.31,30.5c-9.01,8.37-16.53,17.89-22.37,28.71
			c-7.56,14.01-11.71,28.94-12.03,44.88c-0.06,3.06,0.68,3.77,3.77,3.77c6.55,0.01,13.1,0,19.64,0
			C148,467.63,181.4,467.63,214.8,467.62z"/>
		<path d="M92.33,488.34c0.69-0.1,1.38-0.29,2.07-0.29c38.24-0.02,76.47-0.02,114.71-0.02c42.1,0,84.21,0,126.31,0.01
			c11.77,0,21.58,7.57,23.83,19.07c1.44,7.36,1.44,14.83-2.58,21.65c-4.45,7.55-11.17,11.84-19.85,12.03
			c-13.99,0.31-27.99,0.04-41.98,0.02c-1.55,0-3.09,0.07-4.64,0.07c-65.34,0-130.67,0.01-196.01,0c-11.73,0-21.5-7.7-23.77-19.21
			c-0.71-3.59-0.25-7.42-0.32-11.14c4.89-4.9,9.79-9.79,14.68-14.69c0.49-0.43,1.01-0.83,1.46-1.3
			C88.28,492.5,90.3,490.42,92.33,488.34z M214.83,529.8c23.28,0,46.57,0,69.85,0c16.85,0,33.7,0.01,50.55,0
			c6.29,0,11.18-3.44,12.94-9.48c0.65-2.23,0.62-4.7,0.64-7.06c0.06-8.65-5.5-14.13-14.17-14.13c-43.17,0.01-86.34,0.01-129.52,0.01
			c-24.95,0-49.91,0-74.86,0c-11.91,0-23.82-0.02-35.73,0.01c-6.59,0.01-11.59,3.65-13.17,9.88c-0.55,2.15-0.47,4.48-0.48,6.73
			c-0.06,8.41,5.57,14.04,13.92,14.04c8.87,0,17.73,0,26.6,0C152.54,529.8,183.69,529.8,214.83,529.8z"/>
		<path d="M349.5,589.29c0.51,7.78-0.05,15.34-3.03,22.51c-6.35,15.28-17.62,24.96-33.75,28.79c-2.93,0.69-6,1.02-9.01,1.03
			c-24.17,0.06-48.35-0.02-72.52-0.02c-34.47,0-68.94,0.03-103.41,0.08c-14.82,0.02-27.11-5.51-36.72-16.77
			c-6.95-8.14-10.61-17.66-10.95-28.39c-0.08-2.37-0.01-4.74-0.01-7.23C169.91,589.29,259.61,589.29,349.5,589.29z M338.04,600.4
			c-82.27,0-164.22,0-246.37,0c0.64,4.74,2.17,8.98,4.6,12.79c7.32,11.45,17.83,17.36,31.47,17.37c31.91,0.04,63.81,0.02,95.72,0.02
			c26.14,0,52.29,0.03,78.43-0.01c13.11-0.02,23.42-5.46,30.81-16.29C335.51,610.17,337.24,605.59,338.04,600.4z"/>
		<path d="M107.94,548.4c11.22,0.24,19.59,2.69,26.69,8.61c2.64,2.2,5.06,4.67,7.48,7.11c9.88,9.98,25.19,11,35.86,3.8
			c3.01-2.03,5.58-4.77,8.19-7.35c13.31-13.14,32.02-15.82,48.46-6.86c4.66,2.54,8.27,6.31,11.94,10.08
			c7.44,7.64,16.59,10.12,26.96,8.05c6.28-1.26,11.36-4.65,15.63-9.38c10.8-11.96,24.19-16.23,39.85-12.81
			c8.1,1.77,14.98,6.01,20.43,12.34c2.63,3.06,2.46,6.11-0.3,8.45c-2.39,2.03-5.68,1.54-8.19-1.25c-4.28-4.77-9.56-7.88-15.85-8.98
			c-11.41-2-20.7,1.77-28.39,10.38c-8.06,9.02-18.42,13.34-30.5,13.06c-12.22-0.29-22.2-5.46-30.16-14.7
			c-8.7-10.09-25.36-12.44-36.45-4.84c-3.63,2.49-6.63,5.9-9.9,8.9c-8.33,7.61-18.16,11.21-29.39,10.6
			c-11.66-0.63-21.09-5.8-28.83-14.5c-6.8-7.64-15.58-10.47-25.63-9.13c-6.86,0.92-12.62,4.12-17.19,9.34
			c-3.4,3.89-8.18,2.47-9.72-0.96c-1-2.22-0.57-4.2,0.94-5.97c4.75-5.55,10.57-9.63,17.56-11.74
			C101.5,549.42,105.76,548.85,107.94,548.4z"/>
		<path d="M84.78,495.86c-4.89,4.9-9.79,9.79-14.68,14.69c0.43-2.39,0.55-4.9,1.37-7.15c1.63-4.48,4.52-8.13,8.48-10.86
			c0.32-0.22,0.73-0.33,1.1-0.48C82.29,493.32,83.54,494.59,84.78,495.86z"/>
		<path d="M84.78,495.86c-1.24-1.27-2.49-2.54-3.73-3.81c2.54-2.26,5.69-3.08,8.91-3.67c0.77-0.14,1.58-0.04,2.37-0.05
			c-2.03,2.08-4.05,4.16-6.09,6.22C85.79,495.03,85.27,495.43,84.78,495.86z"/>
		<path d="M177.48,405.39c-3.42-0.06-6.14-2.79-6.13-6.15c0.01-3.3,2.93-6.2,6.19-6.14c3.49,0.06,6.25,2.85,6.2,6.28
			C183.68,402.74,180.85,405.46,177.48,405.39z"/>
		<path d="M224.07,399.34c-0.04,3.39-2.77,6.07-6.19,6.06c-3.42-0.01-6.11-2.7-6.11-6.12c0-3.47,2.84-6.27,6.26-6.17
			C221.45,393.21,224.12,395.96,224.07,399.34z"/>
		<path d="M269.15,399.24c0.02,3.51-2.68,6.18-6.23,6.16c-3.33-0.02-5.96-2.66-6.01-6.02c-0.06-3.53,2.57-6.21,6.13-6.25
			C266.41,393.09,269.13,395.8,269.15,399.24z"/>
		<path d="M194.34,432.02c-3.44-0.01-6.29-2.87-6.22-6.22c0.07-3.32,2.88-6.08,6.19-6.09c3.41,0,6.25,2.85,6.21,6.23
			C200.47,429.26,197.66,432.03,194.34,432.02z"/>
		<path d="M242.76,426.02c-0.06,3.43-2.78,6.04-6.22,5.99c-3.54-0.06-6.08-2.77-5.99-6.39c0.08-3.39,2.88-6.01,6.31-5.91
			C240.24,419.79,242.83,422.56,242.76,426.02z"/>
		<path d="M147.22,431.89c-3.31,0.47-6.26-3.74-5.99-6.39c0.34-3.4,3.19-5.98,6.68-5.78c3.18,0.18,6.01,3.53,5.73,6.79
			C153.38,429.63,150.45,432.08,147.22,431.89z"/>
		<path d="M282.23,431.87c-3.4-0.02-6.04-2.66-6.1-6.11c-0.06-3.24,2.84-6.08,6.17-6.05c3.32,0.03,6.1,2.81,6.12,6.13
			C288.45,429.05,285.54,431.89,282.23,431.87z"/>
	</g>
	<text transform="matrix(1 0 0 1 412.5664 677.8356)"><tspan x="0" y="0" class="st2 st3 st4">AQUELE HAMBÚRGUER </tspan><tspan x="0" y="48.8" class="st2 st3 st4">QUE CAIU DO CÉU</tspan></text>
</g>
</svg>
