<?xml version="1.0" encoding="UTF-8"?>
<svg width="292px" height="298px" viewBox="0 0 292 298" xmlns="http://www.w3.org/2000/svg" xmlns:xlink="http://www.w3.org/1999/xlink" version="1.1">
 <!-- Generated by Pixelmator Pro 2.2 -->
 <g id="group">
  <path id="Path" d="M145.62 134.63 C105.99 134.63 66.36 134.63 26.72 134.63 15.74 134.63 10.63 129.78 10.93 118.86 11.88 84.16 26.97 56.24 52.82 33.85 107.37 -13.42 195.61 -10.06 246.48 41.12 267.09 61.86 278.57 86.79 280.7 116.06 281.56 127.92 275.96 134.94 263.52 134.8 224.22 134.35 184.92 134.63 145.62 134.63 Z M145.36 123.23 C184.83 123.23 224.31 123.17 263.78 123.32 267.98 123.34 269.2 122.06 269.06 117.94 268.28 95.66 260.25 76.13 246.53 58.93 211.95 15.57 148.79 -0.44 95.92 21.68 53.97 39.23 26.9 69.25 22.45 116.34 21.8 123.21 21.86 123.23 28.95 123.23 Z" fill="#0a0a0a" fill-opacity="1" stroke="none"/>
  <path id="Path-1" d="M145.24 143.89 L265.2 143.89 C277.4 143.89 286.18 149.72 289.51 159.99 293.68 172.82 290.04 185.97 280.38 192.82 276 195.93 271 196.93 265.74 196.93 185.6 196.93 105.46 196.95 25.32 196.91 10.88 196.9 1.12 186.76 0.81 172.36 0.59 161.92 2.59 152.83 12.43 147.15 15.66 145.29 18.98 144.04 22.78 144.04 61.43 144.01 100.08 143.94 138.73 143.88 140.91 143.89 143.08 143.89 145.24 143.89 Z M146.23 155.1 C144.56 155.1 142.9 155.1 141.23 155.1 103.24 155.1 65.25 155.09 27.26 155.11 19.22 155.11 14.65 157.69 12.81 164.04 9.77 174.49 13.15 185.67 27.96 185.63 106.6 185.44 185.25 185.54 263.89 185.53 265.38 185.53 266.89 185.44 268.36 185.21 274 184.35 277.71 180.88 278.95 175.4 281.87 162.47 275.99 155.11 262.69 155.11 223.88 155.1 185.06 155.1 146.23 155.1 Z" fill="#0a0a0a" fill-opacity="1" stroke="none"/>
  <path id="Path-2" d="M146.03 245.06 C189.18 245.06 232.33 245.15 275.48 244.93 280.08 244.91 280.83 246.24 280.79 250.44 280.53 276.82 259.86 297.55 233.4 297.56 175.09 297.58 116.78 297.58 58.47 297.56 31.19 297.55 10.92 277.13 10.81 249.87 10.8 246.12 11.54 244.92 15.58 244.94 59.07 245.12 102.55 245.06 146.03 245.06 Z M145.84 256.24 C106.37 256.24 66.9 256.31 27.43 256.15 23.1 256.13 22.54 257.2 23.72 261.12 28.27 276.21 42.2 286.19 59.41 286.21 103.55 286.24 147.68 286.22 191.82 286.22 205.98 286.22 220.14 286.4 234.29 286.16 249.8 285.89 263.11 275.68 267.67 261.35 268.95 257.33 268.41 256.11 263.77 256.13 224.45 256.32 185.14 256.24 145.84 256.24 Z" fill="#040404" fill-opacity="1" stroke="none"/>
  <path id="Path-3" d="M38.74 204.19 C53.33 204.4 63.4 209.29 71.73 218.41 79.83 227.27 89.94 230.28 101.64 227.01 106.57 225.63 110.57 222.7 114.09 219.03 120.54 212.32 127.83 206.95 137.2 205.1 152.55 202.07 165.51 206.66 176.04 217.94 183.13 225.54 191.44 229.27 201.86 228.01 209.93 227.03 215.94 222.57 221.31 216.82 229.48 208.06 239.6 203.74 251.63 204.26 262.56 204.73 272.06 208.55 279.56 216.71 282.08 219.45 283.76 222.53 280.59 225.92 278.05 228.64 274.73 228.1 271.11 224.54 258.76 212.39 240.34 212.05 229.09 225.42 213.45 243.98 182.85 244.52 166.44 224.75 156.81 213.15 139.43 212.56 127.87 222.33 125.84 224.04 123.98 225.96 122.05 227.79 104.43 244.51 79.45 243.69 62.96 225.84 50.48 212.33 33.26 212.01 19.9 225.1 17.15 227.8 14.18 228.77 11.12 226.05 7.98 223.26 8.77 220.16 11.31 217.29 19.19 208.36 29.49 204.89 38.74 204.19 Z" fill="#040404" fill-opacity="1" stroke="none"/>
  <path id="Path-4" d="M125.12 88.09 C121.66 88.03 118.7 85.09 118.9 81.67 119.12 77.7 121.59 75.66 125.32 75.39 128.62 75.15 131.74 78.54 131.67 81.82 131.6 85.1 128.42 88.14 125.12 88.09 Z" fill="#0a0a0a" fill-opacity="1" stroke="none"/>
  <path id="Path-5" d="M173.86 81.83 C173.51 85.29 171.68 87.91 167.75 88.01 163.88 88.11 161.55 85.91 161.36 81.95 161.17 77.9 163.61 75.83 167.31 75.35 170.48 74.93 173.74 78.21 173.86 81.83 Z" fill="#0a0a0a" fill-opacity="1" stroke="none"/>
  <path id="Path-6" d="M78.71 87.97 C74.77 87.85 71.77 84.69 71.91 81.46 72.05 78.28 75.46 74.97 78.57 75.39 82.29 75.88 84.76 78.17 84.65 82.02 84.54 85.92 81.91 87.77 78.71 87.97 Z" fill="#0a0a0a" fill-opacity="1" stroke="none"/>
  <path id="Path-7" d="M114.81 55.23 C114.27 58.99 112.45 61.39 108.36 61.28 104.37 61.18 102.07 58.89 102.13 55.06 102.19 51.27 104.48 48.89 108.49 48.97 112.45 49.04 114.43 51.36 114.81 55.23 Z" fill="#0a0a0a" fill-opacity="1" stroke="none"/>
  <path id="Path-8" d="M213.03 87.95 C209.59 87.91 206.7 84.94 206.87 81.45 207.06 77.66 209.45 75.74 212.95 75.4 216.34 75.07 219.35 78.17 219.39 81.62 219.44 85.06 216.49 87.99 213.03 87.95 Z" fill="#0a0a0a" fill-opacity="1" stroke="none"/>
  <path id="Path-9" d="M155.1 54.72 C154.81 58.84 152.92 61.19 148.86 61.25 145.1 61.31 142.9 59.44 142.71 55.6 142.51 51.6 144.5 49.22 148.48 48.99 152.51 48.75 154.52 51.12 155.1 54.72 Z" fill="#040404" fill-opacity="1" stroke="none"/>
  <path id="Path-10" d="M200.01 56.16 C199.74 59.43 197.53 61.36 193.54 61.27 189.95 61.18 187.4 58.34 187.72 54.66 188.06 50.92 190.25 48.98 193.98 48.96 197.61 48.93 200.13 51.7 200.01 56.16 Z" fill="#040404" fill-opacity="1" stroke="none"/>
 </g>
</svg>
