<?xml version="1.0" encoding="utf-8"?>
<!-- Generator: Adobe Illustrator 25.4.1, SVG Export Plug-In . SVG Version: 6.00 Build 0)  -->
<svg version="1.1" id="Camada_1" xmlns="http://www.w3.org/2000/svg" xmlns:xlink="http://www.w3.org/1999/xlink" x="0px" y="0px"
	 viewBox="0 0 840.2 1026.7" style="enable-background:new 0 0 840.2 1026.7;" xml:space="preserve">
<style type="text/css">
	.st0{fill:#0A0A0A;}
	.st1{fill:#040404;}
</style>
<g>
	<g>
		<path class="st0" d="M501.4,717.3c-1,1.7-0.5,3.5-0.5,5.3c0,21-0.1,42,0.1,62.9c0,4-0.8,5.5-5.1,5.3c-10.4-0.3-10.4-0.1-10.4-10.4
			c0-30.3,0.1-60.6-0.1-90.9c0-3.9,1.1-4.7,4.9-5c7.6-0.8,11.7,1.9,15.5,8.7c12.4,22,25.7,43.4,38.7,65.1c1.7-1.2,0.9-2.8,0.9-4.2
			c0.1-21.5,0.1-43,0-64.4c0-3.6,0.5-5.2,4.8-5.1c10.7,0.2,10.7,0,10.7,10.6c0,30.3-0.1,60.6,0.1,90.9c0,3.7-1,4.5-4.7,4.8
			c-7.5,0.7-11.8-1.8-15.6-8.6c-11.9-21.1-24.7-41.7-37.2-62.5C503,718.9,502.8,717.6,501.4,717.3z"/>
		<path class="st1" d="M482.9,132c0-16.1,0.1-32.3-0.1-48.4c0-3.5,1-4.5,4.4-4.4c11.9,0.6,24-1.3,35.8,1.5
			c26.3,6.1,43.1,31.1,39.9,59.1c-2.8,25.1-26,45.4-51.8,45.5c-8.1,0-16.3-0.1-24.5,0.1c-3.1,0.1-3.9-0.9-3.9-4
			C483,164.9,482.9,148.5,482.9,132z M498,132.3c0,8.8,0,17.6,0,26.5c0,11.8,0,11.8,12.1,11.5c17.3-0.5,31.7-10.9,36.6-26.5
			c5-16-0.8-32.6-14.7-42.8c-9.2-6.7-19.8-6.9-30.5-6.8c-2.9,0-3.6,0.9-3.6,3.7C498,109.4,498,120.8,498,132.3z"/>
		<path class="st1" d="M481.1,944.6c3-4.7,5.5-8.7,8-12.8c18.7-29.5,37.4-59,55.9-88.5c2.2-3.5,4.5-5,8.7-4.8
			c11.5,0.3,11.5,0.1,11.5,11.8c0,29.8-0.1,59.6,0.1,89.5c0,4-1,5-5,4.9c-10.2-0.2-10.2,0-10.2-10.1c0-3.5-0.3-7,0.1-10.5
			c0.4-4-1.3-4.7-4.8-4.6c-8.8,0.2-17.7,0.2-26.5,0c-2.8,0-4.5,0.7-6,3.2c-3.8,6.4-8,12.6-11.9,19c-1.3,2.1-2.7,3-5.2,2.8
			C491.2,944.4,486.6,944.6,481.1,944.6z M550.1,865.9c-0.3-0.1-0.7-0.2-1-0.4c-8,12.7-16,25.4-24.5,38.7c8.2,0,15.5-0.1,22.8,0
			c2.3,0,2.7-1,2.7-3C550.1,889.5,550.1,877.7,550.1,865.9z"/>
		<path class="st0" d="M498,457.9c15.4-24.4,30.9-48.8,46.1-73.3c2.4-3.8,4.8-5.8,9.5-5.3c3.6,0.4,7.3,0.1,10.8,0.1
			c1.1,1.5-0.2,2.3-0.8,3.2c-21,33.3-42.1,66.6-63,99.9c-1.6,2.5-3.4,3.1-6.1,3.1c-13,0-13,0.1-13-12.7c0-29.3,0.1-58.6-0.1-87.9
			c0-4.2,0.7-5.8,5.4-5.6c10.1,0.4,10.1,0.1,10.1,10.2c0,21.1,0,42.3,0,63.4c0,1.6,0,3.2,0,4.8C497.3,457.7,497.6,457.8,498,457.9z"
			/>
		<path class="st0" d="M530.9,580.8c0,16.3-0.1,32.6,0.1,48.9c0,3.5-0.9,4.5-4.4,4.5c-11.1-0.1-11.1,0.1-11.1-11.2
			c0-30.3,0.1-60.6-0.1-90.9c0-3.8,0.9-4.7,4.7-4.6c10.8,0.2,10.8,0,10.8,10.9C530.9,552.5,530.9,566.6,530.9,580.8z"/>
		<path class="st0" d="M515.4,279.7c0-16.5,0.1-33-0.1-49.4c0-3.2,0.7-4.2,4.1-4.2c11.4,0.1,11.4-0.1,11.4,11.3
			c0,30-0.1,59.9,0.1,89.9c0,4.2-0.7,5.8-5.3,5.6c-10.1-0.4-10.2-0.1-10.2-10.2C515.4,308.3,515.4,294,515.4,279.7z"/>
	</g>
	<g>
		<path class="st0" d="M686.3,241.2c-4.6,10.6-9.2,21.1-13.8,31.7c-0.8,1.8-1.2,3.5-4,3.6c-3.1,0.1-3.5-1.9-4.4-3.8
			c-4.5-10.3-8.9-20.6-13.5-31.2c-1.7,1.2-1.2,2.7-1.2,3.9c-0.1,9.2,0,18.3,0,27.5c0,1.9,0.2,3.7-2.8,3.6c-2.9-0.1-2.3-2-2.3-3.5
			c0-14.3,0-28.6,0-42.8c0-1.3-1-3.3,1.5-3.7c2.2-0.3,3.7,0.1,4.7,2.5c5.3,12.5,10.7,25,16.1,37.5c0.4,0.8,0.8,1.6,1.4,2.6
			c1.9-1.4,2.2-3.4,3-5.2c5-11.5,10-22.9,14.9-34.5c1-2.4,2.3-3.5,4.8-3c2.7,0.6,1.5,2.7,1.5,4.2c0.1,14,0.1,27.9,0,41.9
			c0,1.6,1,3.9-2.3,4c-3.4,0.1-2.7-2.1-2.7-4c0-10.4,0-20.8,0-31.1C687,241.3,686.6,241.3,686.3,241.2z"/>
		<path class="st0" d="M652.5,331.9c0-7.3,0.1-14.6-0.1-21.8c-0.1-2.6,0.7-3.5,3.4-3.4c3.9,0.2,7.7,0,11.6,0.1
			c5.4,0.1,9.7,2.4,12.2,7.2c2.5,4.8,2.5,10-0.9,14.5c-1.6,2.1-0.9,2.8,0.7,4.2c4.8,4.3,6.2,10,4,15.5c-2.1,5.5-7,8.7-13.5,8.7
			c-4.8,0-9.6-0.1-14.4,0.1c-2.6,0.1-3.1-0.9-3.1-3.2C652.6,346.5,652.5,339.2,652.5,331.9z M665.4,334.3c-8-0.1-8-0.1-8,7.8
			c0,2.6,0,5.3,0,7.9c0,1.5,0.4,2.3,2.1,2.2c4-0.1,8.1,0.2,12.1-0.2c4.6-0.5,8-4.6,8-8.9c0-4.6-3.6-8.3-8.5-8.8
			C669.1,334.1,667.2,334.3,665.4,334.3z M657.4,320.3c0,8.9,0,8.6,8.7,9c5.9,0.3,10.2-3.7,10.3-8.7c0.1-5.3-4-8.6-10.3-8.7
			C657.4,311.8,657.4,311.8,657.4,320.3z"/>
		<path class="st0" d="M685,799.2c-3.7,1.1-5.6-0.2-7.1-3.4c-2.5-5.3-5.3-10.5-8.1-15.7c-1.2-2.4-10.8-4.3-12.8-2.6
			c-0.9,0.8-0.5,2-0.5,3c0,5.4,0,10.9,0,16.3c0,1.4,0.1,2.7-2.1,2.7c-2,0-2.7-0.7-2.7-2.7c0.1-14.9,0.1-29.8,0-44.7
			c0-1.9,0.5-2.8,2.6-2.7c5.4,0.1,10.9-0.1,16.3,0.1c6,0.3,11.1,4.7,12.5,10.2c1.5,6.2-0.9,12.6-6.6,15.4c-2.9,1.5-2.5,2.6-1.3,4.8
			c3.2,5.9,6.2,11.8,9.2,17.7C684.7,798.1,684.8,798.5,685,799.2z M656.6,763.4c0,8.7,0,8.7,8.7,8.7c1.5,0,3.1,0.1,4.7,0
			c5.2-0.3,8.9-4,8.8-8.9c-0.1-4.9-3.7-8.5-9-8.7c-1.4-0.1-2.8,0-4.2,0C656.6,754.5,656.6,754.5,656.6,763.4z"/>
		<path class="st0" d="M685.2,509.6c-3.8,1.2-5.8,0.1-7.3-3.2c-2-4.5-4.9-8.7-6.7-13.3c-1.8-4.7-4.7-5.8-9.5-5.7
			c-4.1,0.1-5.7,0.9-5.3,5.3c0.4,4.8,0.1,9.6,0.1,14.4c0,1.7-0.1,2.9-2.4,2.9c-2.2,0-2.5-0.9-2.5-2.8c0-14.9,0.1-29.8,0-44.7
			c0-1.9,0.5-2.7,2.6-2.7c5.4,0.1,10.9-0.1,16.3,0.1c6.2,0.3,11.4,4.8,12.7,10.5c1.4,6-1,12.4-6.5,15.1c-3.1,1.6-2.6,2.9-1.3,5.1
			C678.7,496.9,681.9,503.3,685.2,509.6z M656.5,473.8c0,8.8,0,8.8,8.6,8.8c1.9,0,3.7,0.1,5.6-0.1c4.6-0.5,8-4.3,7.9-8.8
			c-0.1-4.5-3.4-8.3-8-8.7c-1.7-0.2-3.4-0.1-5.1-0.1C656.5,464.9,656.5,464.9,656.5,473.8z"/>
		<path class="st0" d="M651,104.3c0-7.3,0-14.6,0-21.9c0-1.9,0-3.3,2.6-3.2c2.7,0,2.5,1.7,2.5,3.4c0,5.3,0.1,10.6,0,15.8
			c-0.1,2.5,0.4,3.7,3.3,3.6c6.2-0.2,12.4-0.2,18.6,0c2.7,0.1,3-1.1,3-3.3c-0.1-5.3,0-10.6,0-15.8c0-1.8-0.5-3.7,2.6-3.7
			c2.8,0,2.4,1.7,2.4,3.4c0,14.4,0,28.9,0,43.3c0,1.6,0.5,3.4-2.4,3.5c-3,0.1-2.7-1.7-2.7-3.6c0-5.4-0.1-10.9,0.1-16.3
			c0.1-2.3-0.7-2.9-2.9-2.9c-6.2,0.1-12.4,0.2-18.6,0c-2.8-0.1-3.4,1-3.3,3.5c0.2,5.1,0.1,10.2,0,15.4c0,1.6,0.9,3.8-2.4,3.9
			c-3.5,0.1-2.6-2.3-2.6-4.1C651,118.3,651,111.3,651,104.3z"/>
		<path class="st0" d="M686.7,566.1c0,2.6-0.3,5.3,0.1,7.9c0.6,4.1-1.3,5.7-5,6.6c-10.5,2.6-21.4-1.5-27.7-10.6
			c-5.7-8.3-5.5-20.5,0.4-28.9c6.4-8.9,17.3-12.8,27.5-9.9c1.3,0.4,3.7-0.1,2.8,2.9c-0.8,2.4-2,2.4-4.1,1.9c-9.1-2.3-16.6,0.5-22,8
			c-5,6.9-5.3,14.5-1.1,21.9c4.4,7.7,11.3,11.1,20.3,10.4c2.9-0.2,4.5-1.1,4.2-4.5c-0.3-3.5-0.2-7.1,0-10.7c0.2-2.6-0.8-3.3-3.1-3
			c-1.7,0.2-3.4-0.1-5.1,0c-2.2,0.1-2-1.3-2.1-2.7c0-1.4,0.1-2.4,2-2.3c3.7,0.1,7.5,0.1,11.2,0c2.2-0.1,2,1.4,2,2.8
			C686.8,559.2,686.7,562.7,686.7,566.1z"/>
		<path class="st0" d="M649.4,947.2c3.7-5.9,7.1-11.4,10.6-16.9c6.4-10.1,12.9-20,19-30.3c1.8-3,4-3.1,6.6-2.7
			c2.9,0.5,1.4,3.1,1.4,4.6c0.1,14,0.1,27.9,0.1,41.9c0,1.8,0.6,3.8-2.6,3.6c-3-0.1-2.1-2.1-2.1-3.6c-0.3-8.9-0.3-8.3-8.9-9.1
			c-7.9-0.7-13.2,1.5-16.4,9C655.6,947.7,655,947.5,649.4,947.2z M682.4,905.8c-0.3-0.1-0.6-0.1-0.8-0.2c-5.1,8-10.1,15.9-15.6,24.7
			c5.4,0,10,0,14.6,0c1.4,0,1.9-0.5,1.9-1.9C682.4,920.9,682.4,913.4,682.4,905.8z"/>
		<path class="st0" d="M649.8,200.4c-0.3-1.4,0.7-2.3,1.4-3.3c9.1-14.4,18.2-28.8,27.3-43.2c0.7-1.1,1.2-2.6,2.6-3.1
			c3.6-1.4,5.8,0.2,5.8,4c0,14,0,27.9,0,41.9c0,1.8,0.9,4.2-2.6,4.1c-3.2-0.1-2.3-2.3-2.3-3.9c-0.2-8.5-0.3-7.9-8.9-8.8
			c-8.2-0.8-13.3,1.8-16.2,9.2C655.5,200.7,653.1,201.4,649.8,200.4z M681.9,159.5c-0.3-0.2-0.6-0.3-0.9-0.5
			c-5,8-10.1,15.9-15.5,24.5c5.1,0,9.2-0.1,13.4,0c2.1,0.1,3-0.5,3-2.8C681.9,173.7,681.9,166.6,681.9,159.5z"/>
		<path class="st0" d="M680.6,623.4c0-5.1,0-10.3,0-15.4c0-1.8-0.4-3.7,2.6-3.7c2.8,0.1,2.4,1.7,2.4,3.4c0,10.1,0.2,20.2-0.1,30.3
			c-0.2,9.8-7.8,17.1-17.3,17.1c-9.7,0-17.1-7.5-17.2-17.5c-0.1-9.9,0-19.9,0-29.8c0-1.7-0.4-3.4,2.4-3.4c2.9,0,2.3,1.9,2.3,3.5
			c0,9.5-0.1,18.9,0.1,28.4c0.2,8.9,5.3,14.1,13.3,13.8c6.1-0.3,11.2-5.2,11.4-11.3C680.8,633.7,680.6,628.5,680.6,623.4z"/>
		<path class="st0" d="M685.7,403.5c0,5.3,0.2,10.6,0,15.8c-0.4,9.3-8,16.5-17.4,16.4c-9.3-0.1-16.9-7.4-17-16.8
			c-0.1-10.2,0-20.5,0-30.7c0-1.8-0.1-3.3,2.5-3.3c3,0,2.2,2,2.2,3.5c0,9.5,0,18.9,0,28.4c0.1,8.2,4.9,13.6,11.9,13.8
			c7.5,0.2,12.9-4.9,13-12.6c0.1-9.8,0-19.5,0.1-29.3c0-1.6-1-3.8,2.3-3.8c3.2,0,2.5,2,2.5,3.7C685.7,393.6,685.7,398.6,685.7,403.5
			z"/>
		<path class="st0" d="M655.5,699.6c0-7.1,0.1-14.3,0-21.4c0-2.4,0.3-3.7,3.2-3.6c6.5,0.2,13,0.1,19.6,0c1.9,0,3.2,0.1,3.2,2.7
			c0,2.8-1.8,2.4-3.4,2.4c-4.7,0-9.3,0.1-14,0c-2.5-0.1-3.7,0.5-3.5,3.3c0.2,3.7,0.2,7.5,0,11.2c-0.1,2.4,0.6,3.4,3.1,3.2
			c2.8-0.2,5.6-0.3,8.4,0c1.7,0.2,4.8-1.8,4.8,2.2c0.1,4.4-3.3,2.2-5.1,2.4c-2.7,0.4-5.6,0.2-8.4,0.1c-2.3-0.1-3.1,0.8-2.9,3
			c0,0.1,0,0.3,0,0.5c0.2,4.6-1.9,10.6,0.8,13.5c2.7,3,8.7,0.7,13.3,1c1.4,0.1,2.8,0.1,4.2,0c1.6-0.1,2.6,0.2,2.6,2.2
			c-0.1,1.7-0.5,2.5-2.4,2.5c-7-0.1-14-0.1-21,0c-2.6,0-2.6-1.4-2.6-3.3C655.5,714.2,655.5,706.9,655.5,699.6z"/>
		<path class="st0" d="M670.9,852.8c0,7.3,0,14.5,0,21.8c0,1.8,0.2,3.3-2.5,3.3c-2.6,0-2.6-1.5-2.6-3.3c0-14.7,0-29.4,0-44.1
			c0-2.1,0.4-3,2.8-3c2.4,0,2.3,1.3,2.3,3C670.9,837.9,670.9,845.4,670.9,852.8z"/>
	</g>
	<g>
		<path class="st0" d="M272.2,499.5c-34.1,0-68.2,0-102.3,0c-9.4,0-13.8-4.2-13.6-13.6c0.8-29.9,13.8-53.9,36-73.2
			c46.9-40.7,122.9-37.8,166.6,6.3c17.7,17.8,27.6,39.3,29.4,64.5c0.7,10.2-4.1,16.2-14.8,16.1C339.9,499.3,306.1,499.5,272.2,499.5
			z M272,489.7c34,0,67.9-0.1,101.9,0.1c3.6,0,4.7-1.1,4.5-4.6c-0.7-19.2-7.6-36-19.4-50.8c-29.8-37.3-84.1-51.1-129.6-32.1
			c-36.1,15.1-59.4,40.9-63.2,81.5c-0.6,5.9-0.5,5.9,5.6,5.9C205.2,489.7,238.6,489.7,272,489.7z"/>
		<path class="st0" d="M271.9,507.5c34.4,0,68.8,0,103.2,0c10.5,0,18.1,5,20.9,13.9c3.6,11,0.5,22.4-7.9,28.3
			c-3.8,2.7-8.1,3.5-12.6,3.5c-69,0-137.9,0-206.9,0c-12.4,0-20.8-8.7-21.1-21.1c-0.2-9,1.5-16.8,10-21.7c2.8-1.6,5.6-2.7,8.9-2.7
			c33.3,0,66.5-0.1,99.8-0.1C268.2,507.5,270.1,507.5,271.9,507.5z M272.8,517.2c-1.4,0-2.9,0-4.3,0c-32.7,0-65.4,0-98.1,0
			c-6.9,0-10.9,2.2-12.4,7.7c-2.6,9,0.3,18.6,13,18.6c67.7-0.2,135.3-0.1,203-0.1c1.3,0,2.6-0.1,3.8-0.3c4.9-0.7,8-3.7,9.1-8.4
			c2.5-11.1-2.5-17.5-14-17.5C339.6,517.2,306.2,517.2,272.8,517.2z"/>
		<path class="st1" d="M272.6,594.6c37.1,0,74.3,0.1,111.4-0.1c4,0,4.6,1.1,4.6,4.7c-0.2,22.7-18,40.5-40.8,40.5
			c-50.2,0-100.4,0-150.5,0c-23.5,0-40.9-17.6-41-41c0-3.2,0.6-4.3,4.1-4.2C197.8,594.6,235.2,594.6,272.6,594.6z M272.4,604.2
			c-34,0-67.9,0.1-101.9-0.1c-3.7,0-4.2,0.9-3.2,4.3c3.9,13,15.9,21.6,30.7,21.6c38,0,76,0,113.9,0c12.2,0,24.4,0.2,36.5-0.1
			c13.3-0.2,24.8-9,28.7-21.3c1.1-3.5,0.6-4.5-3.4-4.5C340.1,604.3,306.3,604.2,272.4,604.2z"/>
		<path class="st1" d="M180.3,559.4c12.6,0.2,21.2,4.4,28.4,12.2c7,7.6,15.7,10.2,25.7,7.4c4.2-1.2,7.7-3.7,10.7-6.9
			c5.6-5.8,11.8-10.4,19.9-12c13.2-2.6,24.4,1.3,33.4,11c6.1,6.5,13.3,9.7,22.2,8.7c6.9-0.8,12.1-4.7,16.7-9.6
			c7-7.5,15.7-11.3,26.1-10.8c9.4,0.4,17.6,3.7,24,10.7c2.2,2.4,3.6,5,0.9,7.9c-2.2,2.3-5,1.9-8.2-1.2
			c-10.6-10.5-26.5-10.7-36.2,0.8c-13.5,16-39.8,16.4-53.9-0.6c-8.3-10-23.2-10.5-33.2-2.1c-1.7,1.5-3.3,3.1-5,4.7
			c-15.2,14.4-36.7,13.7-50.8-1.7c-10.7-11.6-25.6-11.9-37.1-0.6c-2.4,2.3-4.9,3.2-7.6,0.8c-2.7-2.4-2-5.1,0.2-7.5
			C163.4,563,172.3,560,180.3,559.4z"/>
		<path class="st0" d="M254.6,459.5c-3-0.1-5.5-2.6-5.4-5.5c0.2-3.4,2.3-5.2,5.5-5.4c2.8-0.2,5.5,2.7,5.5,5.5
			C260.2,456.9,257.4,459.5,254.6,459.5z"/>
		<path class="st0" d="M296.5,454.1c-0.3,3-1.9,5.2-5.3,5.3c-3.3,0.1-5.3-1.8-5.5-5.2c-0.2-3.5,1.9-5.3,5.1-5.7
			C293.6,448.2,296.4,451,296.5,454.1z"/>
		<path class="st0" d="M214.7,459.4c-3.4-0.1-6-2.8-5.9-5.6c0.1-2.7,3.1-5.6,5.7-5.2c3.2,0.4,5.3,2.4,5.2,5.7
			C219.7,457.6,217.4,459.2,214.7,459.4z"/>
		<path class="st0" d="M245.7,431.2c-0.5,3.2-2,5.3-5.6,5.2c-3.4-0.1-5.4-2.1-5.4-5.4c0.1-3.3,2-5.3,5.5-5.2
			C243.7,425.9,245.4,427.9,245.7,431.2z"/>
		<path class="st0" d="M330.3,459.4c-3,0-5.4-2.6-5.3-5.6c0.2-3.3,2.2-4.9,5.2-5.2c2.9-0.3,5.5,2.4,5.5,5.4
			C335.8,456.9,333.2,459.4,330.3,459.4z"/>
		<path class="st1" d="M280.4,430.8c-0.2,3.5-1.9,5.6-5.4,5.6c-3.2,0.1-5.1-1.6-5.3-4.9c-0.2-3.4,1.5-5.5,5-5.7
			C278.2,425.6,279.9,427.7,280.4,430.8z"/>
		<path class="st1" d="M319,432c-0.2,2.8-2.1,4.5-5.6,4.4c-3.1-0.1-5.3-2.5-5-5.7c0.3-3.2,2.2-4.9,5.4-4.9
			C317,425.8,319.1,428.2,319,432z"/>
	</g>
</g>
</svg>
