<?xml version="1.0" encoding="UTF-8"?>
<svg width="940px" height="385px" viewBox="0 0 940 385" xmlns="http://www.w3.org/2000/svg" xmlns:xlink="http://www.w3.org/1999/xlink" version="1.1">
 <!-- Generated by Pixelmator Pro 2.2 -->
 <g id="group">
  <g id="group-1">
   <path id="Path" d="M345.64 145.18 L345.64 45 370.27 45 C384.08 45 395.9 49.91 405.71 59.72 415.48 69.49 420.36 81.28 420.36 95.09 420.36 108.9 415.48 120.69 405.71 130.46 395.9 140.27 384.08 145.18 370.27 145.18 Z M354.78 136.05 L370.27 136.05 C381.57 136.05 391.22 132.05 399.22 124.05 407.22 116.05 411.22 106.4 411.22 95.1 411.22 83.8 407.22 74.15 399.22 66.15 391.22 58.15 381.57 54.15 370.27 54.15 L354.78 54.15 Z" fill="#000000" fill-opacity="1" stroke="#000000" stroke-width="6" stroke-opacity="1" stroke-linejoin="round" stroke-linecap="round"/>
   <path id="Path-1" d="M473.54 44.51 L482.82 44.51 482.82 145.18 473.54 145.18 Z" fill="#000000" fill-opacity="1" stroke="#000000" stroke-width="6" stroke-opacity="1" stroke-linejoin="round" stroke-linecap="round"/>
   <path id="Path-2" d="M616.15 45 L552.8 145.18 540.52 145.18 540.52 45 549.73 45 549.73 132.9 605.26 45 Z" fill="#000000" fill-opacity="1" stroke="#000000" stroke-width="6" stroke-opacity="1" stroke-linejoin="round" stroke-linecap="round"/>
   <path id="Path-3" d="M667.31 44.51 L676.59 44.51 676.59 145.18 667.31 145.18 Z" fill="#000000" fill-opacity="1" stroke="#000000" stroke-width="6" stroke-opacity="1" stroke-linejoin="round" stroke-linecap="round"/>
   <path id="Path-4" d="M803.43 45 L803.43 145.18 793.52 145.18 743.57 61.67 743.57 145.18 734.36 145.18 734.36 45 744.34 45 794.22 128.51 794.22 45 Z" fill="#000000" fill-opacity="1" stroke="#000000" stroke-width="6" stroke-opacity="1" stroke-linejoin="round" stroke-linecap="round"/>
   <path id="Path-5" d="M933.84 45 L933.84 145.18 924.7 145.18 924.7 120.14 884.94 120.14 869.1 145.18 858.22 145.18 921.56 45 Z M890.72 110.93 L924.69 110.93 924.69 57.28 Z" fill="#000000" fill-opacity="1" stroke="#000000" stroke-width="6" stroke-opacity="1" stroke-linejoin="round" stroke-linecap="round"/>
   <path id="Path-6" d="M379.3 199.98 L379.3 253.35 374.39 253.35 374.39 229.04 347.33 229.04 347.33 253.35 342.42 253.35 342.42 199.98 347.33 199.98 347.33 224.14 374.39 224.14 374.39 199.98 Z" fill="#000000" fill-opacity="1" stroke="none"/>
   <path id="Path-7" d="M434.59 199.98 L434.59 253.35 429.72 253.35 429.72 240 408.54 240 400.1 253.34 394.3 253.34 428.05 199.97 434.59 199.97 Z M411.62 235.1 L429.72 235.1 429.72 206.52 Z" fill="#000000" fill-opacity="1" stroke="none"/>
   <path id="Path-8" d="M504.34 199.98 L504.34 253.31 499.47 253.31 499.47 211.83 481.52 253.34 476.17 253.34 458.26 211.83 458.26 253.31 453.35 253.31 453.35 199.98 458.48 199.98 478.85 247.18 499.25 199.98 Z" fill="#000000" fill-opacity="1" stroke="none"/>
   <path id="Path-9" d="M522.94 253.34 L522.94 199.97 539 199.97 C542.99 199.97 546.4 201.38 549.22 204.21 552.07 207.06 553.49 210.48 553.49 214.47 553.49 218.9 551.79 222.58 548.4 225.51 550.93 226.7 552.95 228.46 554.46 230.79 556 233.19 556.77 235.82 556.77 238.67 556.77 242.73 555.35 246.19 552.5 249.04 549.63 251.91 546.18 253.35 542.17 253.35 L522.94 253.35 Z M527.85 224.09 L539 224.09 C541.62 224.09 543.88 223.15 545.76 221.27 547.64 219.39 548.58 217.12 548.58 214.47 548.58 211.82 547.64 209.56 545.76 207.71 543.88 205.83 541.62 204.89 539 204.89 L527.85 204.89 Z M527.85 248.44 L542.16 248.44 C544.84 248.44 547.13 247.49 549.03 245.58 550.91 243.67 551.85 241.37 551.85 238.67 551.85 236.02 550.91 233.74 549.03 231.83 547.12 229.95 544.83 229.01 542.16 229.01 L527.85 229.01 Z" fill="#000000" fill-opacity="1" stroke="none"/>
   <path id="Path-10" d="M578.68 248.55 C575.09 244.96 573.29 240.62 573.29 235.54 L573.29 200.09 578.2 200.09 578.2 235.54 C578.2 239.26 579.51 242.44 582.14 245.09 584.79 247.74 587.98 249.07 591.69 249.07 595.41 249.07 598.59 247.75 601.24 245.09 603.87 242.44 605.18 239.25 605.18 235.54 L605.18 200.09 610.09 200.09 610.09 235.54 C610.09 240.62 608.29 244.96 604.7 248.55 601.11 252.14 596.77 253.94 591.69 253.94 586.61 253.94 582.27 252.14 578.68 248.55 Z" fill="#000000" fill-opacity="1" stroke="none"/>
   <path id="Path-11" d="M663.96 253.34 L658.46 253.34 645.93 229.22 633.15 229.22 633.15 253.3 628.24 253.3 628.24 199.97 647.42 199.97 C651.46 199.97 654.9 201.41 657.75 204.28 660.6 207.13 662.02 210.57 662.02 214.61 662.02 217.95 660.99 220.95 658.94 223.6 656.93 226.18 654.36 227.89 651.21 228.73 Z M647.42 224.32 C650.1 224.32 652.39 223.38 654.3 221.5 656.18 219.59 657.12 217.3 657.12 214.62 657.12 211.94 656.18 209.65 654.3 207.74 652.39 205.83 650.1 204.88 647.42 204.88 L633.15 204.88 633.15 224.32 Z" fill="#000000" fill-opacity="1" stroke="none"/>
   <path id="Path-12" d="M684.8 245.87 C679.47 240.57 676.81 234.16 676.81 226.66 676.81 219.18 679.47 212.77 684.8 207.45 690.1 202.15 696.51 199.5 704.01 199.5 707.7 199.5 711.23 200.21 714.6 201.62 L712.67 206.15 C709.92 204.99 707.03 204.4 704.01 204.4 697.87 204.4 692.61 206.57 688.25 210.9 683.89 215.26 681.71 220.51 681.71 226.66 681.71 232.8 683.89 238.06 688.25 242.42 692.61 246.78 697.86 248.96 704.01 248.96 706.49 248.96 708.89 248.56 711.22 247.77 L711.22 228.96 700.11 228.96 700.11 224.05 716.13 224.05 716.13 251.07 714.64 251.7 C711.25 253.14 707.7 253.86 704.01 253.86 696.5 253.86 690.1 251.2 684.8 245.87 Z" fill="#000000" fill-opacity="1" stroke="none"/>
   <path id="Path-13" d="M737.97 248.55 C734.38 244.96 732.58 240.62 732.58 235.54 L732.58 200.09 737.49 200.09 737.49 235.54 C737.49 239.26 738.8 242.44 741.43 245.09 744.08 247.74 747.27 249.07 750.98 249.07 754.69 249.07 757.88 247.75 760.53 245.09 763.16 242.44 764.47 239.25 764.47 235.54 L764.47 200.09 769.38 200.09 769.38 235.54 C769.38 240.62 767.58 244.96 763.99 248.55 760.4 252.14 756.06 253.94 750.98 253.94 745.9 253.94 741.56 252.14 737.97 248.55 Z" fill="#000000" fill-opacity="1" stroke="none"/>
   <path id="Path-14" d="M814.66 199.98 L814.66 204.89 792.32 204.89 792.32 224.14 809.97 224.14 809.97 229.05 792.32 229.05 792.32 248.45 814.66 248.45 814.66 253.36 787.42 253.36 787.42 199.99 814.66 199.99 Z" fill="#000000" fill-opacity="1" stroke="none"/>
   <path id="Path-15" d="M866.98 253.34 L861.48 253.34 848.95 229.22 836.17 229.22 836.17 253.3 831.26 253.3 831.26 199.97 850.44 199.97 C854.48 199.97 857.92 201.41 860.77 204.28 863.62 207.13 865.04 210.57 865.04 214.61 865.04 217.95 864.01 220.95 861.96 223.6 859.95 226.18 857.38 227.89 854.23 228.73 Z M850.44 224.32 C853.12 224.32 855.41 223.38 857.32 221.5 859.2 219.59 860.14 217.3 860.14 214.62 860.14 211.94 859.2 209.65 857.32 207.74 855.41 205.83 853.12 204.88 850.44 204.88 L836.17 204.88 836.17 224.32 Z" fill="#000000" fill-opacity="1" stroke="none"/>
   <path id="Path-16" d="M880.64 199.72 L885.58 199.72 885.58 253.35 880.64 253.35 Z" fill="#000000" fill-opacity="1" stroke="none"/>
   <path id="Path-17" d="M939.98 199.98 L939.98 253.35 935.11 253.35 935.11 240 913.93 240 905.49 253.34 899.69 253.34 933.44 199.97 939.98 199.97 Z M917.02 235.1 L935.12 235.1 935.12 206.52 Z" fill="#000000" fill-opacity="1" stroke="none"/>
  </g>
  <g id="group-2">
   <path id="Path-18" d="M145.05 134.71 C108.43 134.71 71.81 134.71 35.2 134.71 31.39 134.71 27.58 134.73 23.77 134.71 16.15 134.66 10.21 129 10.11 121.36 9.93 107.07 12.92 93.37 18.27 80.16 23.14 68.14 29.96 57.29 38.46 47.53 45.04 39.97 52.43 33.28 60.58 27.41 70.98 19.91 82.2 14.02 94.22 9.63 111.93 3.18 130.23 0.29 149.04 0.83 169.75 1.43 189.55 6.01 208.27 15 223.56 22.34 237.06 32.16 248.6 44.6 260.04 56.93 268.64 71.01 273.98 86.97 277.68 98.03 279.72 109.43 279.61 121.15 279.54 128.71 273.7 134.68 266.15 134.69 231.08 134.72 196.01 134.71 160.93 134.71 155.63 134.71 150.34 134.71 145.05 134.71 Z M144.8 123.62 L172.83 123.62 264.64 123.62 C267.83 123.62 268.56 122.94 268.49 119.73 268.17 104.85 264.51 90.79 257.81 77.54 250.71 63.49 240.89 51.62 228.79 41.58 218.63 33.15 207.4 26.53 195.18 21.62 180.65 15.78 165.55 12.6 149.88 12.03 137.37 11.58 125.04 12.76 112.89 15.74 91.22 21.06 72 31.01 55.58 46.24 46.57 54.61 39.05 64.13 33.21 74.95 25.65 88.96 21.5 103.89 21.18 119.83 21.12 122.89 21.86 123.6 24.95 123.6 31.5 123.61 38.05 123.6 44.59 123.6 78 123.63 111.4 123.63 144.8 123.62 Z" fill="#000000" fill-opacity="1" stroke="none"/>
   <path id="Path-19" d="M22.33 144.34 C23.02 144.24 23.71 144.05 24.4 144.05 62.64 144.03 100.87 144.03 139.11 144.03 181.21 144.03 223.32 144.03 265.42 144.04 277.19 144.04 287 151.61 289.25 163.11 290.69 170.47 290.69 177.94 286.67 184.76 282.22 192.31 275.5 196.6 266.82 196.79 252.83 197.1 238.83 196.83 224.84 196.81 223.29 196.81 221.75 196.88 220.2 196.88 154.86 196.88 89.53 196.89 24.19 196.88 12.46 196.88 2.69 189.18 0.42 177.67 -0.29 174.08 0.17 170.25 0.1 166.53 4.99 161.63 9.89 156.74 14.78 151.84 15.27 151.41 15.79 151.01 16.24 150.54 18.28 148.5 20.3 146.42 22.33 144.34 Z M144.83 185.8 L214.68 185.8 C231.53 185.8 248.38 185.81 265.23 185.8 271.52 185.8 276.41 182.36 278.17 176.32 278.82 174.09 278.79 171.62 278.81 169.26 278.87 160.61 273.31 155.13 264.64 155.13 221.47 155.14 178.3 155.14 135.12 155.14 110.17 155.14 85.21 155.14 60.26 155.14 48.35 155.14 36.44 155.12 24.53 155.15 17.94 155.16 12.94 158.8 11.36 165.03 10.81 167.18 10.89 169.51 10.88 171.76 10.82 180.17 16.45 185.8 24.8 185.8 L51.4 185.8 Z" fill="#000000" fill-opacity="1" stroke="none"/>
   <path id="Path-20" d="M279.5 245.29 C280.01 253.07 279.45 260.63 276.47 267.8 270.12 283.08 258.85 292.76 242.72 296.59 239.79 297.28 236.72 297.61 233.71 297.62 209.54 297.68 185.36 297.6 161.19 297.6 126.72 297.6 92.25 297.63 57.78 297.68 42.96 297.7 30.67 292.17 21.06 280.91 14.11 272.77 10.45 263.25 10.11 252.52 10.03 250.15 10.1 247.78 10.1 245.29 Z M268.04 256.4 C185.77 256.4 103.82 256.4 21.67 256.4 22.31 261.14 23.84 265.38 26.27 269.19 33.59 280.64 44.1 286.55 57.74 286.56 89.65 286.6 121.55 286.58 153.46 286.58 179.6 286.58 205.75 286.61 231.89 286.57 245 286.55 255.31 281.11 262.7 270.28 265.51 266.17 267.24 261.59 268.04 256.4 Z" fill="#000000" fill-opacity="1" stroke="none"/>
   <path id="Path-21" d="M37.94 204.4 C49.16 204.64 57.53 207.09 64.63 213.01 67.27 215.21 69.69 217.68 72.11 220.12 81.99 230.1 97.3 231.12 107.97 223.92 110.98 221.89 113.55 219.15 116.16 216.57 129.47 203.43 148.18 200.75 164.62 209.71 169.28 212.25 172.89 216.02 176.56 219.79 184 227.43 193.15 229.91 203.52 227.84 209.8 226.58 214.88 223.19 219.15 218.46 229.95 206.5 243.34 202.23 259 205.65 267.1 207.42 273.98 211.66 279.43 217.99 282.06 221.05 281.89 224.1 279.13 226.44 276.74 228.47 273.45 227.98 270.94 225.19 266.66 220.42 261.38 217.31 255.09 216.21 243.68 214.21 234.39 217.98 226.7 226.59 218.64 235.61 208.28 239.93 196.2 239.65 183.98 239.36 174 234.19 166.04 224.95 157.34 214.86 140.68 212.51 129.59 220.11 125.96 222.6 122.96 226.01 119.69 229.01 111.36 236.62 101.53 240.22 90.3 239.61 78.64 238.98 69.21 233.81 61.47 225.11 54.67 217.47 45.89 214.64 35.84 215.98 28.98 216.9 23.22 220.1 18.65 225.32 15.25 229.21 10.47 227.79 8.93 224.36 7.93 222.14 8.36 220.16 9.87 218.39 14.62 212.84 20.44 208.76 27.43 206.65 31.5 205.42 35.76 204.85 37.94 204.4 Z" fill="#000000" fill-opacity="1" stroke="none"/>
   <path id="Path-22" d="M14.78 151.86 C9.89 156.76 4.99 161.65 0.1 166.55 0.53 164.16 0.65 161.65 1.47 159.4 3.1 154.92 5.99 151.27 9.95 148.54 10.27 148.32 10.68 148.21 11.05 148.06 12.29 149.32 13.54 150.59 14.78 151.86 Z" fill="#000000" fill-opacity="1" stroke="none"/>
   <path id="Path-23" d="M14.78 151.86 C13.54 150.59 12.29 149.32 11.05 148.05 13.59 145.79 16.74 144.97 19.96 144.38 20.73 144.24 21.54 144.34 22.33 144.33 20.3 146.41 18.28 148.49 16.24 150.55 15.79 151.03 15.27 151.43 14.78 151.86 Z" fill="#000000" fill-opacity="1" stroke="none"/>
   <path id="Path-24" d="M107.48 61.39 C104.06 61.33 101.34 58.6 101.35 55.24 101.36 51.94 104.28 49.04 107.54 49.1 111.03 49.16 113.79 51.95 113.74 55.38 113.68 58.74 110.85 61.46 107.48 61.39 Z" fill="#000000" fill-opacity="1" stroke="none"/>
   <path id="Path-25" d="M154.07 55.34 C154.03 58.73 151.3 61.41 147.88 61.4 144.46 61.39 141.77 58.7 141.77 55.28 141.77 51.81 144.61 49.01 148.03 49.11 151.45 49.21 154.12 51.96 154.07 55.34 Z" fill="#000000" fill-opacity="1" stroke="none"/>
   <path id="Path-26" d="M199.15 55.24 C199.17 58.75 196.47 61.42 192.92 61.4 189.59 61.38 186.96 58.74 186.91 55.38 186.85 51.85 189.48 49.17 193.04 49.13 196.41 49.09 199.13 51.8 199.15 55.24 Z" fill="#000000" fill-opacity="1" stroke="none"/>
   <path id="Path-27" d="M124.34 88.02 C120.9 88.01 118.05 85.15 118.12 81.8 118.19 78.48 121 75.72 124.31 75.71 127.72 75.71 130.56 78.56 130.52 81.94 130.47 85.26 127.66 88.03 124.34 88.02 Z" fill="#000000" fill-opacity="1" stroke="none"/>
   <path id="Path-28" d="M172.76 82.02 C172.7 85.45 169.98 88.06 166.54 88.01 163 87.95 160.46 85.24 160.55 81.62 160.63 78.23 163.43 75.61 166.86 75.71 170.24 75.79 172.83 78.56 172.76 82.02 Z" fill="#000000" fill-opacity="1" stroke="none"/>
   <path id="Path-29" d="M77.22 87.89 C73.91 88.36 70.96 84.15 71.23 81.5 71.57 78.1 74.42 75.52 77.91 75.72 81.09 75.9 83.92 79.25 83.64 82.51 83.38 85.63 80.45 88.08 77.22 87.89 Z" fill="#000000" fill-opacity="1" stroke="none"/>
   <path id="Path-30" d="M212.23 87.87 C208.83 87.85 206.19 85.21 206.13 81.76 206.07 78.52 208.97 75.68 212.3 75.71 215.62 75.74 218.4 78.52 218.42 81.84 218.45 85.05 215.54 87.89 212.23 87.87 Z" fill="#000000" fill-opacity="1" stroke="none"/>
  </g>
  <defs>
   <text id="string" transform="matrix(1.0 0.0 0.0 1.0 342.0 357.0)" font-size="34.344" text-decoration="none" x="1.0" y="26.0" font-family="Helvetica, Helvetica">QUE CAIU DO CÉU</text>
  </defs>
  <use id="QUE-CAIU-DO-CÉU" xlink:href="#string" fill="#000000" fill-opacity="1" stroke="none"/>
  <defs>
   <text id="string-1" transform="matrix(1.0 0.0 0.0 1.0 342.0 308.0)" y="26.0" font-family="Helvetica, Helvetica" font-size="34.344" text-decoration="none" x="1.0">AQUELE HAMBÚRGUER </text>
  </defs>
  <use id="AQUELE-HAMBÚRGUER-" xlink:href="#string-1" fill="#000000" fill-opacity="1" stroke="none"/>
 </g>
</svg>
