<?xml version="1.0" encoding="UTF-8"?>
<svg width="599px" height="582px" viewBox="0 0 599 582" xmlns="http://www.w3.org/2000/svg" xmlns:xlink="http://www.w3.org/1999/xlink" version="1.1">
 <!-- Generated by Pixelmator Pro 2.2 -->
 <g id="group">
  <path id="Path" d="M297.62 134.63 C257.99 134.63 218.36 134.63 178.72 134.63 167.74 134.63 162.63 129.78 162.93 118.86 163.88 84.16 178.97 56.24 204.82 33.85 259.37 -13.42 347.61 -10.06 398.48 41.12 419.09 61.86 430.57 86.79 432.7 116.06 433.56 127.92 427.96 134.94 415.52 134.8 376.22 134.35 336.92 134.63 297.62 134.63 Z M297.36 123.23 C336.83 123.23 376.31 123.17 415.78 123.32 419.98 123.34 421.2 122.06 421.06 117.94 420.28 95.66 412.25 76.13 398.53 58.93 363.95 15.57 300.79 -0.44 247.92 21.68 205.97 39.23 178.9 69.25 174.45 116.34 173.8 123.21 173.86 123.23 180.95 123.23 Z" fill="#0a0a0a" fill-opacity="1" stroke="none"/>
  <path id="Path-1" d="M297.24 143.89 L417.2 143.89 C429.4 143.89 438.18 149.72 441.51 159.99 445.68 172.82 442.04 185.97 432.38 192.82 428 195.93 423 196.93 417.74 196.93 337.6 196.93 257.46 196.95 177.32 196.91 162.88 196.9 153.12 186.76 152.81 172.36 152.59 161.92 154.59 152.83 164.43 147.15 167.66 145.29 170.98 144.04 174.78 144.04 213.43 144.01 252.08 143.94 290.73 143.88 292.91 143.89 295.08 143.89 297.24 143.89 Z M298.23 155.1 C296.56 155.1 294.9 155.1 293.23 155.1 255.24 155.1 217.25 155.09 179.26 155.11 171.22 155.11 166.65 157.69 164.81 164.04 161.77 174.49 165.15 185.67 179.96 185.63 258.6 185.44 337.25 185.54 415.89 185.53 417.38 185.53 418.89 185.44 420.36 185.21 426 184.35 429.71 180.88 430.95 175.4 433.87 162.47 427.99 155.11 414.69 155.11 375.88 155.1 337.06 155.1 298.23 155.1 Z" fill="#0a0a0a" fill-opacity="1" stroke="none"/>
  <path id="Path-2" d="M298.03 245.06 C341.18 245.06 384.33 245.15 427.48 244.93 432.08 244.91 432.83 246.24 432.79 250.44 432.53 276.82 411.86 297.55 385.4 297.56 327.09 297.58 268.78 297.58 210.47 297.56 183.19 297.55 162.92 277.13 162.81 249.87 162.8 246.12 163.54 244.92 167.58 244.94 211.07 245.12 254.55 245.06 298.03 245.06 Z M297.84 256.24 C258.37 256.24 218.9 256.31 179.43 256.15 175.1 256.13 174.54 257.2 175.72 261.12 180.27 276.21 194.2 286.19 211.41 286.21 255.55 286.24 299.68 286.22 343.82 286.22 357.98 286.22 372.14 286.4 386.29 286.16 401.8 285.89 415.11 275.68 419.67 261.35 420.95 257.33 420.41 256.11 415.77 256.13 376.45 256.32 337.14 256.24 297.84 256.24 Z" fill="#040404" fill-opacity="1" stroke="none"/>
  <path id="Path-3" d="M404.91 402.11 C403.92 403.83 404.43 405.66 404.42 407.39 404.38 428.37 404.29 449.35 404.48 470.33 404.52 474.3 403.73 475.8 399.39 475.68 388.99 475.39 388.98 475.62 388.98 465.28 388.98 434.98 389.06 404.67 388.89 374.37 388.87 370.43 389.98 369.7 393.81 369.32 401.37 368.56 405.5 371.25 409.31 378.01 421.7 399.96 435 421.4 448.01 443.13 449.73 441.9 448.92 440.28 448.93 438.97 448.99 417.49 449.05 396.01 448.9 374.53 448.87 370.89 449.43 369.29 453.66 369.39 464.37 369.64 464.38 369.41 464.38 380.01 464.38 410.31 464.31 440.62 464.47 470.92 464.49 474.62 463.52 475.4 459.82 475.75 452.32 476.47 448.07 473.95 444.24 467.14 432.36 446.01 419.55 425.41 407.08 404.61 406.53 403.7 406.35 402.42 404.91 402.11 Z" fill="#0a0a0a" fill-opacity="1" stroke="none"/>
  <path id="Path-4" d="M0.77 422.25 C0.77 406.11 0.88 389.97 0.69 373.83 0.65 370.29 1.67 369.28 5.13 369.47 17.06 370.12 29.11 368.19 40.93 370.94 67.22 377.04 84.05 402.04 80.88 430.05 78.04 455.14 54.89 475.47 29.03 475.55 20.88 475.58 12.72 475.41 4.57 475.63 1.42 475.72 0.68 474.72 0.71 471.68 0.84 455.2 0.77 438.72 0.77 422.25 Z M15.78 422.58 L15.78 449.03 C15.78 460.83 15.78 460.83 27.87 460.5 45.18 460.03 59.6 449.59 64.46 434.03 69.46 418.02 63.68 401.41 49.79 391.28 40.56 384.55 30.01 384.41 19.29 384.48 16.42 384.5 15.69 385.37 15.72 388.14 15.87 399.62 15.78 411.1 15.78 422.58 Z" fill="#040404" fill-opacity="1" stroke="none"/>
  <path id="Path-5" d="M510.63 475.54 C513.59 470.82 516.1 466.8 518.64 462.79 537.29 433.29 556.03 403.84 574.52 374.24 576.74 370.69 578.97 369.29 583.18 369.41 594.66 369.73 594.66 369.52 594.66 381.23 594.66 411.05 594.58 440.87 594.76 470.69 594.78 474.66 593.73 475.72 589.8 475.63 579.65 475.4 579.64 475.59 579.64 465.53 579.64 462.03 579.35 458.5 579.72 455.04 580.14 451.06 578.46 450.36 574.91 450.46 566.09 450.7 557.25 450.64 548.42 450.48 545.62 450.43 543.9 451.21 542.42 453.72 538.62 460.16 534.4 466.34 530.53 472.74 529.25 474.85 527.81 475.7 525.34 475.59 520.74 475.4 516.12 475.54 510.63 475.54 Z M579.64 396.88 C579.32 396.76 578.99 396.63 578.67 396.51 570.65 409.19 562.64 421.87 554.22 435.18 562.41 435.18 569.69 435.11 576.97 435.22 579.29 435.26 579.69 434.23 579.68 432.21 579.6 420.44 579.64 408.66 579.64 396.88 Z" fill="#040404" fill-opacity="1" stroke="none"/>
  <path id="Path-6" d="M190.74 204.19 C205.33 204.4 215.4 209.29 223.73 218.41 231.83 227.27 241.94 230.28 253.64 227.01 258.57 225.63 262.57 222.7 266.09 219.03 272.54 212.32 279.83 206.95 289.2 205.1 304.55 202.07 317.51 206.66 328.04 217.94 335.13 225.54 343.44 229.27 353.86 228.01 361.93 227.03 367.94 222.57 373.31 216.82 381.48 208.06 391.6 203.74 403.63 204.26 414.56 204.73 424.06 208.55 431.56 216.71 434.08 219.45 435.76 222.53 432.59 225.92 430.05 228.64 426.73 228.1 423.11 224.54 410.76 212.39 392.34 212.05 381.09 225.42 365.45 243.98 334.85 244.52 318.44 224.75 308.81 213.15 291.43 212.56 279.87 222.33 277.84 224.04 275.98 225.96 274.05 227.79 256.43 244.51 231.45 243.69 214.96 225.84 202.48 212.33 185.26 212.01 171.9 225.1 169.15 227.8 166.18 228.77 163.12 226.05 159.98 223.26 160.77 220.16 163.31 217.29 171.19 208.36 181.49 204.89 190.74 204.19 Z" fill="#040404" fill-opacity="1" stroke="none"/>
  <path id="Path-7" d="M211.81 448.01 C227.22 423.58 242.7 399.2 257.95 374.67 260.31 370.88 262.76 368.85 267.41 369.41 271.01 369.84 274.7 369.5 278.25 369.5 279.36 371.02 278.03 371.81 277.5 372.66 256.5 405.96 235.43 439.21 214.5 472.55 212.91 475.08 211.08 475.61 208.39 475.61 195.36 475.61 195.36 475.67 195.36 462.88 195.36 433.58 195.44 404.27 195.27 374.97 195.24 370.77 195.95 369.18 200.63 369.37 210.75 369.77 210.77 369.48 210.77 379.56 L210.77 443 210.77 447.78 C211.11 447.85 211.46 447.93 211.81 448.01 Z" fill="#0a0a0a" fill-opacity="1" stroke="none"/>
  <path id="Path-8" d="M337.41 422.23 C337.41 438.54 337.31 454.86 337.49 471.17 337.53 474.62 336.64 475.69 333.08 475.66 322.01 475.56 322.01 475.72 322.01 464.45 322.01 434.15 322.09 403.86 321.91 373.56 321.89 369.79 322.84 368.85 326.57 368.92 337.41 369.13 337.41 368.95 337.41 379.78 Z" fill="#0a0a0a" fill-opacity="1" stroke="none"/>
  <path id="Path-9" d="M128.37 422.57 C128.37 406.09 128.45 389.61 128.3 373.13 128.27 369.97 128.98 368.9 132.38 368.93 143.77 369.01 143.77 368.85 143.77 380.22 143.77 410.18 143.68 440.15 143.87 470.11 143.9 474.31 143.17 475.88 138.53 475.7 128.38 475.32 128.37 475.6 128.37 465.52 128.37 451.2 128.37 436.88 128.37 422.57 Z" fill="#0a0a0a" fill-opacity="1" stroke="none"/>
  <path id="Path-10" d="M155.99 543.07 C151.04 554.42 146.08 565.76 141.16 577.12 140.31 579.09 139.87 580.9 136.88 581 133.57 581.12 133.08 578.97 132.19 576.9 127.4 565.84 122.64 554.76 117.75 543.42 115.88 544.76 116.5 546.35 116.5 547.64 116.44 557.47 116.45 567.3 116.48 577.12 116.49 579.21 116.68 581.05 113.51 580.93 110.44 580.81 111.08 578.83 111.08 577.13 111.05 561.81 111.04 546.48 111.11 531.16 111.12 529.76 110.03 527.59 112.7 527.17 115.01 526.81 116.72 527.28 117.79 529.82 123.45 543.28 129.26 556.68 135.03 570.09 135.42 570.99 135.92 571.83 136.48 572.9 138.51 571.45 138.86 569.21 139.67 567.35 145.07 555.05 150.45 542.74 155.62 530.34 156.7 527.75 158.07 526.58 160.78 527.16 163.64 527.77 162.37 530.11 162.38 531.65 162.48 546.64 162.47 561.63 162.4 576.62 162.39 578.32 163.49 580.76 159.98 580.91 156.28 581.07 157.05 578.64 157.05 576.62 157.02 565.49 157.04 554.35 157.04 543.22 156.69 543.18 156.34 543.13 155.99 543.07 Z" fill="#0a0a0a" fill-opacity="1" stroke="none"/>
  <path id="Path-11" d="M180.71 554.11 C180.71 546.3 180.83 538.49 180.65 530.69 180.59 527.88 181.4 526.93 184.25 527.09 188.39 527.33 192.55 527.09 196.71 527.17 202.48 527.28 207.11 529.77 209.77 534.85 212.48 540.04 212.45 545.56 208.79 550.36 207.08 552.61 207.78 553.34 209.52 554.88 214.71 559.5 216.15 565.56 213.86 571.52 211.62 577.37 206.3 580.82 199.41 580.86 194.26 580.89 189.1 580.7 183.96 580.93 181.2 581.06 180.63 580 180.67 577.53 180.78 569.73 180.71 561.92 180.71 554.11 Z M194.54 556.62 C185.92 556.55 185.92 556.55 185.92 564.95 185.92 567.78 185.97 570.61 185.91 573.44 185.87 575.05 186.34 575.88 188.15 575.83 192.47 575.71 196.83 576.04 201.11 575.61 206.02 575.11 209.73 570.65 209.69 566.07 209.65 561.13 205.84 557.14 200.52 556.65 198.54 556.47 196.53 556.62 194.54 556.62 Z M185.92 541.61 C185.92 551.19 185.94 550.81 195.28 551.28 201.63 551.6 206.23 547.34 206.3 541.9 206.38 536.25 202.02 532.62 195.29 532.56 185.92 532.47 185.92 532.47 185.92 541.61 Z" fill="#0a0a0a" fill-opacity="1" stroke="none"/>
  <path id="Path-12" d="M524.57 580.49 C520.56 581.71 518.52 580.24 516.94 576.81 514.31 571.08 511.2 565.58 508.27 559.99 506.93 557.43 496.66 555.34 494.55 557.23 493.57 558.11 494.05 559.4 494.04 560.5 493.99 566.33 494.01 572.16 494.02 577.99 494.02 579.54 494.17 580.93 491.8 580.91 489.63 580.9 488.92 580.18 488.93 578.02 488.99 562.03 488.99 546.03 488.93 530.04 488.92 527.95 489.51 527.05 491.75 527.09 497.58 527.21 503.42 526.93 509.24 527.21 515.66 527.53 521.16 532.26 522.63 538.17 524.28 544.79 521.68 551.64 515.51 554.74 512.41 556.3 512.82 557.55 514.08 559.9 517.47 566.18 520.7 572.55 523.99 578.88 524.23 579.33 524.34 579.82 524.57 580.49 Z M494.03 542.09 C494.03 551.46 494.03 551.47 503.35 551.46 505.01 551.46 506.68 551.53 508.34 551.44 513.87 551.15 517.86 547.11 517.81 541.94 517.75 536.69 513.83 532.85 508.19 532.56 506.7 532.49 505.2 532.55 503.7 532.55 494.03 532.56 494.03 532.56 494.03 542.09 Z" fill="#0a0a0a" fill-opacity="1" stroke="none"/>
  <path id="Path-13" d="M321.87 580.45 C317.84 581.7 315.63 580.53 314.06 576.98 311.92 572.13 308.81 567.69 306.91 562.76 304.95 557.69 301.82 556.5 296.68 556.68 292.33 556.83 290.54 557.62 290.97 562.35 291.43 567.47 291.04 572.67 291.09 577.83 291.11 579.67 291.03 580.94 288.52 580.94 286.16 580.94 285.82 579.96 285.83 577.97 285.88 561.98 285.89 545.98 285.83 529.99 285.82 527.9 286.36 527.04 288.62 527.09 294.45 527.23 300.29 526.95 306.11 527.2 312.75 527.49 318.35 532.34 319.73 538.49 321.18 544.96 318.63 551.75 312.73 554.67 309.36 556.34 309.99 557.74 311.31 560.19 314.91 566.89 318.35 573.67 321.87 580.45 Z M291.07 542.05 C291.07 551.46 291.07 551.46 300.35 551.46 302.34 551.46 304.35 551.58 306.33 551.38 311.22 550.89 314.91 546.74 314.85 541.98 314.79 537.15 311.15 533.12 306.24 532.63 304.43 532.45 302.59 532.56 300.76 532.56 291.07 532.55 291.07 532.56 291.07 542.05 Z" fill="#0a0a0a" fill-opacity="1" stroke="none"/>
  <path id="Path-14" d="M0.08 554.04 C0.08 546.21 0.11 538.38 0.06 530.55 0.05 528.54 0.07 527.06 2.85 527.07 5.79 527.08 5.48 528.86 5.48 530.7 5.48 536.36 5.58 542.03 5.43 547.69 5.36 550.32 5.87 551.62 8.93 551.52 15.59 551.3 22.26 551.31 28.92 551.52 31.78 551.61 32.16 550.38 32.11 548 31.99 542.34 32.07 536.67 32.07 531.01 32.07 529.05 31.57 527 34.87 527.06 37.83 527.11 37.47 528.91 37.47 530.72 37.47 546.21 37.48 561.71 37.46 577.2 37.46 578.96 37.95 580.85 34.93 580.93 31.69 581.01 32.05 579.07 32.06 577.05 32.08 571.22 31.95 565.39 32.12 559.56 32.19 557.09 31.35 556.45 28.98 556.5 22.32 556.64 15.65 556.69 8.99 556.49 6.02 556.4 5.34 557.54 5.42 560.25 5.59 565.74 5.52 571.24 5.44 576.74 5.41 578.51 6.37 580.85 2.9 580.93 -0.87 581.02 0.11 578.47 0.09 576.53 0.04 569.03 0.08 561.54 0.08 554.04 Z" fill="#0a0a0a" fill-opacity="1" stroke="none"/>
  <path id="Path-15" d="M374.05 565.09 C374.05 567.92 373.72 570.8 374.12 573.57 374.76 577.99 372.75 579.66 368.74 580.65 357.51 583.43 345.74 579.06 339.01 569.26 332.86 560.31 333.07 547.22 339.49 538.29 346.38 528.71 358 524.51 368.98 527.72 370.41 528.14 372.94 527.63 371.94 530.8 371.12 533.39 369.77 533.42 367.49 532.84 357.71 530.33 349.69 533.37 343.84 541.42 338.44 548.84 338.15 556.99 342.66 564.88 347.38 573.15 354.81 576.8 364.4 576.05 367.55 575.8 369.25 574.89 368.91 571.24 368.56 567.44 368.65 563.57 368.89 559.76 369.07 557.02 368.03 556.27 365.52 556.5 363.7 556.67 361.85 556.44 360.03 556.55 357.7 556.69 357.84 555.2 357.81 553.62 357.79 552.11 357.97 551.06 359.91 551.1 363.9 551.19 367.91 551.21 371.9 551.1 374.29 551.03 374.03 552.61 374.03 554.08 374.06 557.76 374.05 561.43 374.05 565.09 Z" fill="#0a0a0a" fill-opacity="1" stroke="none"/>
  <path id="Path-16" d="M557.4 580.65 C561.4 574.29 565.07 568.42 568.77 562.56 575.59 551.75 582.6 541.06 589.16 530.09 591.06 526.91 593.5 526.76 596.25 527.23 599.35 527.76 597.73 530.51 597.75 532.13 597.9 547.1 597.84 562.08 597.83 577.05 597.83 578.95 598.47 581.08 595.08 580.94 591.84 580.8 592.88 578.64 592.83 577.08 592.56 567.55 592.54 568.18 583.33 567.36 574.82 566.61 569.2 568.92 565.76 577.01 563.99 581.16 563.42 580.92 557.4 580.65 Z M592.79 536.23 C592.49 536.15 592.19 536.07 591.88 535.98 586.46 544.53 581.05 553.08 575.12 562.44 580.94 562.44 585.86 562.4 590.78 562.46 592.31 562.48 592.81 561.87 592.8 560.41 592.77 552.36 592.79 544.3 592.79 536.23 Z" fill="#0a0a0a" fill-opacity="1" stroke="none"/>
  <path id="Path-17" d="M52.94 580.52 C52.62 578.97 53.74 578.01 54.43 576.93 64.18 561.47 73.96 546.04 83.75 530.61 84.53 529.38 85 527.85 86.55 527.25 90.36 525.78 92.78 527.44 92.78 531.58 92.79 546.57 92.8 561.56 92.76 576.55 92.75 578.51 93.68 581.03 89.93 580.93 86.46 580.84 87.46 578.48 87.41 576.72 87.18 567.55 87.14 568.28 77.87 567.33 69.12 566.43 63.63 569.31 60.47 577.23 59.02 580.86 56.4 581.59 52.94 580.52 Z M87.38 536.67 C87.07 536.5 86.76 536.34 86.45 536.17 81.06 544.72 75.66 553.27 69.86 562.47 75.32 562.47 79.77 562.38 84.21 562.51 86.5 562.58 87.46 561.94 87.42 559.46 87.3 551.87 87.38 544.27 87.38 536.67 Z" fill="#0a0a0a" fill-opacity="1" stroke="none"/>
  <path id="Path-18" d="M421.99 547.51 C421.99 542.01 421.99 536.51 421.99 531.02 421.99 529.05 421.51 527.02 424.8 527.08 427.77 527.14 427.39 528.95 427.39 530.75 427.39 541.58 427.59 552.41 427.33 563.24 427.08 573.8 418.99 581.57 408.82 581.55 398.39 581.53 390.45 573.55 390.33 562.73 390.21 552.07 390.3 541.4 390.31 530.74 390.31 528.93 389.92 527.07 392.9 527.09 395.97 527.12 395.37 529.13 395.38 530.85 395.41 541.01 395.25 551.18 395.44 561.34 395.62 570.92 401.18 576.5 409.74 576.15 416.29 575.88 421.73 570.61 421.94 564.01 422.13 558.51 421.98 553.01 421.99 547.51 Z" fill="#0a0a0a" fill-opacity="1" stroke="none"/>
  <path id="Path-19" d="M268.07 547.01 C268.06 552.67 268.24 558.33 268.02 563.98 267.64 574 259.39 581.65 249.34 581.54 239.35 581.43 231.21 573.57 231.06 563.55 230.9 552.57 231.04 541.59 231.01 530.6 231.01 528.68 230.85 527.04 233.72 527.08 236.91 527.12 236.04 529.26 236.05 530.87 236.1 541.02 236 551.17 236.1 561.32 236.19 570.09 241.33 575.91 248.91 576.14 256.97 576.38 262.76 570.84 262.83 562.6 262.92 552.12 262.81 541.63 262.89 531.15 262.9 529.46 261.79 527.08 265.38 527.06 268.82 527.04 268.03 529.21 268.05 531.04 268.11 536.36 268.08 541.69 268.07 547.01 Z" fill="#0a0a0a" fill-opacity="1" stroke="none"/>
  <path id="Path-20" d="M444.98 553.94 C444.98 546.28 445.06 538.62 444.93 530.96 444.89 528.39 445.24 526.99 448.37 527.09 455.36 527.31 462.36 527.2 469.35 527.13 471.42 527.11 472.79 527.26 472.76 529.98 472.74 532.97 470.86 532.54 469.07 532.55 464.07 532.57 459.07 532.68 454.08 532.51 451.38 532.42 450.13 533.07 450.31 536.07 450.55 540.05 450.49 544.07 450.32 548.06 450.21 550.62 450.98 551.7 453.67 551.52 456.65 551.32 459.69 551.23 462.65 551.57 464.48 551.78 467.75 549.61 467.83 553.89 467.92 558.57 464.33 556.21 462.4 556.46 459.45 556.84 456.41 556.68 453.42 556.52 450.97 556.39 450.08 557.4 450.36 559.71 450.38 559.87 450.35 560.04 450.36 560.21 450.6 565.18 448.33 571.55 451.19 574.73 454.09 577.96 460.57 575.44 465.47 575.79 466.96 575.9 468.47 575.86 469.96 575.79 471.68 575.71 472.8 575.99 472.72 578.17 472.65 580 472.23 580.9 470.19 580.88 462.7 580.8 455.2 580.76 447.71 580.9 444.91 580.95 444.93 579.39 444.94 577.41 445.01 569.59 444.98 561.77 444.98 553.94 Z" fill="#0a0a0a" fill-opacity="1" stroke="none"/>
  <path id="Path-21" d="M543.68 553.98 C543.68 561.78 543.67 569.58 543.69 577.38 543.7 579.27 543.9 580.94 541.02 580.94 538.2 580.94 538.27 579.38 538.27 577.43 538.29 561.67 538.32 545.9 538.24 530.14 538.23 527.9 538.66 526.88 541.22 526.91 543.79 526.93 543.71 528.31 543.7 530.09 543.66 538.05 543.68 546.02 543.68 553.98 Z" fill="#0a0a0a" fill-opacity="1" stroke="none"/>
  <path id="Path-22" d="M277.12 88.09 C273.66 88.03 270.7 85.09 270.9 81.67 271.12 77.7 273.59 75.66 277.32 75.39 280.62 75.15 283.74 78.54 283.67 81.82 283.6 85.1 280.42 88.14 277.12 88.09 Z" fill="#0a0a0a" fill-opacity="1" stroke="none"/>
  <path id="Path-23" d="M325.86 81.83 C325.51 85.29 323.68 87.91 319.75 88.01 315.88 88.11 313.55 85.91 313.36 81.95 313.17 77.9 315.61 75.83 319.31 75.35 322.48 74.93 325.74 78.21 325.86 81.83 Z" fill="#0a0a0a" fill-opacity="1" stroke="none"/>
  <path id="Path-24" d="M230.71 87.97 C226.77 87.85 223.77 84.69 223.91 81.46 224.05 78.28 227.46 74.97 230.57 75.39 234.29 75.88 236.76 78.17 236.65 82.02 236.54 85.92 233.91 87.77 230.71 87.97 Z" fill="#0a0a0a" fill-opacity="1" stroke="none"/>
  <path id="Path-25" d="M266.81 55.23 C266.27 58.99 264.45 61.39 260.36 61.28 256.37 61.18 254.07 58.89 254.13 55.06 254.19 51.27 256.48 48.89 260.49 48.97 264.45 49.04 266.43 51.36 266.81 55.23 Z" fill="#0a0a0a" fill-opacity="1" stroke="none"/>
  <path id="Path-26" d="M365.03 87.95 C361.59 87.91 358.7 84.94 358.87 81.45 359.06 77.66 361.45 75.74 364.95 75.4 368.34 75.07 371.35 78.17 371.39 81.62 371.44 85.06 368.49 87.99 365.03 87.95 Z" fill="#0a0a0a" fill-opacity="1" stroke="none"/>
  <path id="Path-27" d="M307.1 54.72 C306.81 58.84 304.92 61.19 300.86 61.25 297.1 61.31 294.9 59.44 294.71 55.6 294.51 51.6 296.5 49.22 300.48 48.99 304.51 48.75 306.52 51.12 307.1 54.72 Z" fill="#040404" fill-opacity="1" stroke="none"/>
  <path id="Path-28" d="M352.01 56.16 C351.74 59.43 349.53 61.36 345.54 61.27 341.95 61.18 339.4 58.34 339.72 54.66 340.06 50.92 342.25 48.98 345.98 48.96 349.61 48.93 352.13 51.7 352.01 56.16 Z" fill="#040404" fill-opacity="1" stroke="none"/>
 </g>
</svg>
